<?xml version="1.0" encoding="UTF-8"?>
<svg width="135.5mm" height="135.5mm" version="1.1" viewBox="0 0 135.5 135.5" xmlns="http://www.w3.org/2000/svg"><path d="m135.5 67.73a67.73 67.73 0 0 1-67.73 67.73 67.73 67.73 0 0 1-67.73-67.73 67.73 67.73 0 0 1 67.73-67.73 67.73 67.73 0 0 1 67.73 67.73z" style="fill-rule:evenodd;fill:#fffefd"/><path d="m128.7 67.73a60.96 60.96 0 0 1-60.96 60.96 60.96 60.96 0 0 1-60.96-60.96 60.96 60.96 0 0 1 60.96-60.96 60.96 60.96 0 0 1 60.96 60.96z" style="fill-rule:evenodd;fill:#eae9e8"/><path d="m91.12 38.09q-0.5435 0.9058-1.208 1.389-0.6039 0.4227-1.51 0.4227-1.027 0-2.416-1.027-1.389-1.027-3.503-2.234-2.053-1.268-5.012-2.295-2.899-1.027-7.065-1.027-3.925 0-6.945 1.087-2.959 1.027-5.012 2.838-1.993 1.812-3.019 4.288-1.027 2.416-1.027 5.254 0 3.623 1.751 6.039 1.812 2.355 4.71 4.046 2.959 1.691 6.643 2.959 3.744 1.208 7.609 2.536 3.925 1.329 7.609 3.019 3.744 1.63 6.643 4.167 2.959 2.536 4.71 6.22 1.812 3.684 1.812 9.058 0 5.676-1.932 10.69-1.932 4.952-5.676 8.635-3.684 3.684-9.119 5.797-5.375 2.114-12.26 2.114-8.454 0-15.34-3.019-6.884-3.08-11.78-8.273l3.382-5.556q0.4831-0.6642 1.147-1.087 0.7247-0.4831 1.57-0.4831 0.785 0 1.751 0.6642 1.027 0.6039 2.295 1.57 1.268 0.9661 2.899 2.114 1.63 1.147 3.684 2.114 2.114 0.9662 4.771 1.63 2.657 0.6039 5.978 0.6039 4.167 0 7.428-1.147 3.261-1.147 5.495-3.201 2.295-2.114 3.503-5.012 1.208-2.899 1.208-6.462 0-3.925-1.812-6.401-1.751-2.536-4.65-4.227-2.899-1.691-6.643-2.838-3.744-1.208-7.609-2.416-3.865-1.268-7.609-2.899-3.744-1.63-6.643-4.227-2.899-2.597-4.71-6.462-1.751-3.925-1.751-9.662 0-4.589 1.751-8.877 1.812-4.288 5.193-7.609 3.442-3.321 8.394-5.314 5.012-1.993 11.47-1.993 7.247 0 13.16 2.295 5.978 2.295 10.51 6.643z" style="fill:#9e480b"/></svg>
